<svg width="33" height="33" viewBox="0 0 33 33" fill="none" xmlns="http://www.w3.org/2000/svg">
<path d="M5.5 9.625C5.5 7.68046 5.5 6.70819 6.10409 6.10409C6.70819 5.5 7.68046 5.5 9.625 5.5C11.5695 5.5 12.5418 5.5 13.1459 6.10409C13.75 6.70819 13.75 7.68046 13.75 9.625V23.375C13.75 25.3195 13.75 26.2918 13.1459 26.896C12.5418 27.5 11.5695 27.5 9.625 27.5C7.68046 27.5 6.70819 27.5 6.10409 26.896C5.5 26.2918 5.5 25.3195 5.5 23.375V9.625Z" stroke="#141B34" stroke-width="1.5"/>
<path d="M19.25 9.625C19.25 7.68046 19.25 6.70819 19.854 6.10409C20.4582 5.5 21.4305 5.5 23.375 5.5C25.3195 5.5 26.2918 5.5 26.896 6.10409C27.5 6.70819 27.5 7.68046 27.5 9.625V23.375C27.5 25.3195 27.5 26.2918 26.896 26.896C26.2918 27.5 25.3195 27.5 23.375 27.5C21.4305 27.5 20.4582 27.5 19.854 26.896C19.25 26.2918 19.25 25.3195 19.25 23.375V9.625Z" stroke="#141B34" stroke-width="1.5"/>
</svg>
