<svg width="27" height="27" viewBox="0 0 27 27" fill="none" xmlns="http://www.w3.org/2000/svg">
<path d="M2.5 24.5L7.5 19.5" stroke="#353740" stroke-width="1.5" stroke-linecap="round"/>
<path d="M8.5 24.5L10.5 22.5" stroke="#353740" stroke-width="1.5" stroke-linecap="round"/>
<path d="M2.5 18.5L4.5 16.5" stroke="#353740" stroke-width="1.5" stroke-linecap="round"/>
<path d="M17.5848 9.87103C14.9479 7.30138 12.3937 5.64579 11.8797 6.17317C11.5049 6.55786 12.3192 7.99776 13.8106 9.74609C14.0792 10.061 14.0034 10.5439 13.7477 10.8693C13.0829 11.7153 13.0911 12.9388 13.8626 13.6907C14.6342 14.4425 15.8575 14.4191 16.686 13.7326C17.0047 13.4686 17.4855 13.3804 17.8072 13.6407C19.5935 15.0866 21.0539 15.8634 21.4288 15.4787C21.9427 14.9513 20.2217 12.4407 17.5848 9.87103Z" stroke="#353740" stroke-width="1.5" stroke-linejoin="round"/>
<path d="M15.6262 4.23901L16.5811 5.16957M16.5811 5.16957L17.536 6.10012M16.5811 5.16957L14.72 7.07938" stroke="#353740" stroke-width="1.5" stroke-linecap="round" stroke-linejoin="round"/>
<path d="M21.3557 9.82227L22.3106 10.7528M22.3106 10.7528L23.2655 11.6834M22.3106 10.7528L20.4495 12.6626" stroke="#353740" stroke-width="1.5" stroke-linecap="round" stroke-linejoin="round"/>
<path d="M7.72887 13.2985L8.42679 12.5823C9.7116 11.2639 11.822 11.2366 13.1404 12.5215M14.4132 19.8124L15.1111 19.0962C16.396 17.7778 16.3687 15.6674 15.0503 14.3826" stroke="#353740" stroke-width="1.5" stroke-linecap="round" stroke-linejoin="round"/>
</svg>
