<svg width="18" height="18" viewBox="0 0 18 18" fill="none" xmlns="http://www.w3.org/2000/svg">
<path d="M1 9C1 5.72077 1 4.08116 1.81382 2.91891C2.1149 2.48891 2.48891 2.1149 2.91891 1.81382C4.08116 1 5.72077 1 9 1C12.2792 1 13.9188 1 15.0811 1.81382C15.5111 2.1149 15.8851 2.48891 16.1862 2.91891C17 4.08116 17 5.72077 17 9C17 12.2792 17 13.9188 16.1862 15.0811C15.8851 15.5111 15.5111 15.8851 15.0811 16.1862C13.9188 17 12.2792 17 9 17C5.72077 17 4.08116 17 2.91891 16.1862C2.48891 15.8851 2.1149 15.5111 1.81382 15.0811C1 13.9188 1 12.2792 1 9Z" stroke="#141B34" stroke-width="1.5"/>
</svg>
