<svg width="81" height="79" viewBox="0 0 81 79" fill="none" xmlns="http://www.w3.org/2000/svg">
<circle cx="40.0205" cy="36.9961" r="28.3182" transform="rotate(-0.291361 40.0205 36.9961)" stroke="#AFC4DA" stroke-width="0.48"/>
<circle cx="40.0207" cy="36.9959" r="10.426" transform="rotate(-0.291361 40.0207 36.9959)" fill="#EEEEEE"/>
<circle cx="40.0204" cy="36.9963" r="4.98636" transform="rotate(-0.291361 40.0204 36.9963)" fill="#BDBDBD"/>
<g clip-path="url(#clip0_152_2706)">
<path d="M37.5124 39.1251L39.7118 34.1245C39.8881 33.7234 40.4215 33.7207 40.6021 34.1199L42.8523 39.0979C43.0561 39.5487 42.611 40.02 42.1904 39.7982L40.4013 38.8547C40.2622 38.7814 40.0988 38.7822 39.9607 38.857L38.1814 39.8186C37.7631 40.0443 37.3128 39.5782 37.5124 39.1251Z" fill="white"/>
</g>
<path fill-rule="evenodd" clip-rule="evenodd" d="M63.599 37.1854C63.5123 37.1852 63.4422 37.1148 63.4417 37.0281C63.4413 36.9414 63.5107 36.8703 63.5974 36.8693L66.2853 36.8378C66.383 36.8367 66.4633 36.915 66.4637 37.0127C66.4642 37.1105 66.3848 37.1896 66.2871 37.1894L63.599 37.1854ZM63.0712 32.9871C63.0866 33.072 63.1674 33.1291 63.2525 33.1144L65.902 32.6548C65.9981 32.6381 66.0626 32.5465 66.0453 32.4505C66.0279 32.3545 65.9356 32.2914 65.8397 32.3094L63.1966 32.8047C63.1118 32.8206 63.0559 32.9021 63.0712 32.9871ZM62.0038 29.0742C62.0337 29.155 62.1232 29.197 62.2043 29.1677L64.7329 28.2519C64.8246 28.2187 64.872 28.1173 64.8382 28.0259C64.8044 27.9344 64.7025 27.8885 64.6112 27.9229L62.0952 28.8728C62.0146 28.9033 61.9739 28.9933 62.0038 29.0742ZM60.2685 25.4074C60.3121 25.4818 60.4075 25.5076 60.4823 25.4645L62.8123 24.1215C62.8967 24.0728 62.9257 23.9648 62.8765 23.8807C62.8273 23.7965 62.7189 23.7691 62.6351 23.8189L60.3234 25.1931C60.2492 25.2372 60.2249 25.333 60.2685 25.4074ZM57.9222 22.0983C57.9781 22.1641 58.0766 22.1729 58.1428 22.1175L60.2048 20.3911C60.2795 20.3285 60.2894 20.2172 60.2263 20.1429C60.1633 20.0686 60.0518 20.0603 59.978 20.1238L57.9392 21.8776C57.8738 21.9339 57.8664 22.0325 57.9222 22.0983ZM55.0392 19.2445C55.1056 19.2996 55.2041 19.2913 55.2597 19.2253L56.9927 17.1687C57.0555 17.0942 57.046 16.9829 56.9711 16.9206C56.8962 16.8583 56.7849 16.8693 56.7231 16.9447L55.0178 19.0241C54.9631 19.0909 54.9728 19.1893 55.0392 19.2445ZM51.7064 16.932C51.7813 16.9748 51.8769 16.9495 51.9202 16.8749L53.2708 14.5493C53.3198 14.465 53.2912 14.357 53.2066 14.3086C53.1219 14.2602 53.0142 14.2903 52.9664 14.3753L51.6472 16.7188C51.6049 16.794 51.6315 16.8892 51.7064 16.932ZM48.0222 15.2341C48.1034 15.2631 48.193 15.2216 48.2226 15.1406L49.1469 12.615C49.1804 12.5235 49.1334 12.422 49.0416 12.3891C48.9498 12.3563 48.849 12.4047 48.8167 12.4967L47.9267 15.0345C47.8981 15.1159 47.941 15.205 48.0222 15.2341ZM44.0986 14.2065C44.1837 14.2209 44.2647 14.1642 44.2798 14.0792L44.7482 11.4313C44.7651 11.3352 44.7011 11.2435 44.6049 11.2271C44.5087 11.2108 44.4178 11.2762 44.4021 11.3725L43.9695 14.0265C43.9556 14.1117 44.0135 14.192 44.0986 14.2065ZM40.054 13.8771C40.1408 13.8766 40.2112 13.8065 40.2113 13.7198L40.2154 11.0317C40.2155 10.934 40.1364 10.8546 40.0387 10.8551C39.9409 10.8556 39.8626 10.9358 39.8638 11.0335L39.8952 13.7214C39.8962 13.8081 39.9673 13.8775 40.054 13.8771ZM36.013 14.2476C36.098 14.2322 36.1551 14.1514 36.1403 14.0663L35.6807 11.4168C35.664 11.3207 35.5725 11.2562 35.4764 11.2736C35.3804 11.2909 35.3173 11.3832 35.3353 11.4792L35.8306 14.1222C35.8465 14.207 35.9281 14.2629 36.013 14.2476ZM32.1001 15.315C32.181 15.2851 32.223 15.1956 32.1936 15.1145L31.2778 12.5859C31.2446 12.4942 31.1433 12.4468 31.0518 12.4806C30.9604 12.5145 30.9144 12.6164 30.9488 12.7076L31.8988 15.2236C31.9292 15.3043 32.0192 15.3449 32.1001 15.315ZM28.4333 17.0503C28.5078 17.0068 28.5335 16.9113 28.4904 16.8365L27.1474 14.5066C27.0987 14.4221 26.9907 14.3931 26.9066 14.4423C26.8225 14.4916 26.795 14.5999 26.8448 14.6837L28.219 16.9954C28.2631 17.0696 28.3589 17.0939 28.4333 17.0503ZM25.1243 19.3966C25.1901 19.3407 25.1988 19.2422 25.1434 19.1761L23.417 17.114C23.3545 17.0393 23.2431 17.0294 23.1688 17.0925C23.0945 17.1555 23.0862 17.267 23.1498 17.3408L24.9036 19.3796C24.9599 19.4451 25.0585 19.4524 25.1243 19.3966ZM22.2704 22.2796C22.3256 22.2133 22.3172 22.1147 22.2512 22.0591L20.1947 20.3261C20.1202 20.2633 20.0088 20.2728 19.9465 20.3477C19.8842 20.4227 19.8953 20.5339 19.9706 20.5957L22.0501 22.301C22.1168 22.3558 22.2152 22.346 22.2704 22.2796ZM19.9579 25.6124C20.0008 25.5375 19.9754 25.442 19.9008 25.3986L17.5753 24.048C17.491 23.999 17.3829 24.0276 17.3345 24.1123C17.2861 24.1969 17.3163 24.3046 17.4012 24.3524L19.7447 25.6716C19.8199 25.714 19.9151 25.6873 19.9579 25.6124ZM18.26 29.2966C18.2891 29.2154 18.2475 29.1258 18.1665 29.0962L15.641 28.1719C15.5494 28.1384 15.448 28.1854 15.4151 28.2772C15.3822 28.369 15.4307 28.4698 15.5227 28.5021L18.0605 29.3921C18.1418 29.4207 18.2309 29.3778 18.26 29.2966ZM17.2324 33.2202C17.2469 33.1351 17.1902 33.0541 17.1052 33.039L14.4572 32.5707C14.3611 32.5537 14.2694 32.6177 14.2531 32.7139C14.2367 32.8101 14.3021 32.901 14.3984 32.9167L17.0525 33.3493C17.1377 33.3632 17.2179 33.3053 17.2324 33.2202ZM16.7457 37.1075C16.8324 37.1077 16.9026 37.1781 16.903 37.2648C16.9034 37.3515 16.834 37.4226 16.7473 37.4236L14.0595 37.455C13.9617 37.4562 13.8815 37.3779 13.881 37.2801C13.8805 37.1824 13.9599 37.1033 14.0577 37.1034L16.7457 37.1075ZM17.2735 41.3058C17.2582 41.2208 17.1773 41.1637 17.0923 41.1785L14.4428 41.6381C14.3466 41.6548 14.2822 41.7463 14.2995 41.8424C14.3168 41.9384 14.4092 42.0015 14.5051 41.9835L17.1481 41.4882C17.233 41.4723 17.2888 41.3907 17.2735 41.3058ZM18.341 45.2187C18.3111 45.1378 18.2216 45.0959 18.1405 45.1252L15.6119 46.041C15.5202 46.0742 15.4727 46.1755 15.5066 46.267C15.5404 46.3585 15.6423 46.4044 15.7335 46.37L18.2495 45.4201C18.3302 45.3896 18.3709 45.2996 18.341 45.2187ZM20.0763 48.8855C20.0327 48.811 19.9372 48.7853 19.8625 48.8284L17.5325 50.1714C17.4481 50.2201 17.419 50.3281 17.4683 50.4122C17.5175 50.4963 17.6259 50.5238 17.7097 50.474L20.0214 49.0998C20.0955 49.0557 20.1199 48.9599 20.0763 48.8855ZM22.4225 52.1945C22.3667 52.1287 22.2682 52.12 22.202 52.1754L20.14 53.9018C20.0653 53.9644 20.0554 54.0757 20.1184 54.15C20.1815 54.2243 20.2929 54.2326 20.3668 54.1691L22.4056 52.4152C22.471 52.359 22.4784 52.2603 22.4225 52.1945ZM25.3056 55.0484C25.2392 54.9932 25.1407 55.0016 25.0851 55.0676L23.3521 57.1241C23.2893 57.1986 23.2987 57.31 23.3737 57.3723C23.4486 57.4346 23.5598 57.4236 23.6216 57.3482L25.327 55.2687C25.3817 55.202 25.3719 55.1036 25.3056 55.0484ZM28.6383 57.3609C28.5634 57.3181 28.4679 57.3434 28.4246 57.418L27.0739 59.7435C27.025 59.8278 27.0536 59.9359 27.1382 59.9843C27.2228 60.0327 27.3305 60.0026 27.3783 59.9176L28.6976 57.5741C28.7399 57.4989 28.7132 57.4037 28.6383 57.3609ZM32.3226 59.0588C32.2414 59.0297 32.1518 59.0713 32.1221 59.1523L31.1979 61.6778C31.1644 61.7694 31.2114 61.8708 31.3032 61.9037C31.3949 61.9366 31.4958 61.8882 31.5281 61.7961L32.4181 59.2583C32.4466 59.177 32.4037 59.0879 32.3226 59.0588ZM36.2461 60.0864C36.161 60.072 36.08 60.1286 36.065 60.2136L35.5966 62.8616C35.5796 62.9577 35.6436 63.0494 35.7398 63.0657C35.836 63.0821 35.9269 63.0167 35.9426 62.9204L36.3753 60.2664C36.3891 60.1812 36.3312 60.1009 36.2461 60.0864ZM40.2907 60.4158C40.204 60.4162 40.1336 60.4864 40.1335 60.5731L40.1294 63.2611C40.1292 63.3589 40.2083 63.4383 40.3061 63.4378C40.4038 63.4373 40.4821 63.3571 40.481 63.2594L40.4495 60.5715C40.4485 60.4848 40.3774 60.4154 40.2907 60.4158ZM44.3317 60.0453C44.2468 60.0606 44.1897 60.1415 44.2044 60.2266L44.664 62.876C44.6807 62.9722 44.7723 63.0366 44.8683 63.0193C44.9643 63.002 45.0274 62.9096 45.0094 62.8137L44.5142 60.1707C44.4983 60.0858 44.4167 60.03 44.3317 60.0453ZM48.2447 58.9779C48.1638 59.0078 48.1218 59.0973 48.1512 59.1783L49.067 61.7069C49.1002 61.7986 49.2015 61.8461 49.2929 61.8123C49.3844 61.7784 49.4304 61.6765 49.3959 61.5853L48.446 59.0693C48.4156 58.9886 48.3255 58.9479 48.2447 58.9779ZM51.9114 57.2425C51.837 57.2861 51.8113 57.3816 51.8543 57.4563L53.1974 59.7863C53.246 59.8708 53.354 59.8998 53.4382 59.8506C53.5223 59.8013 53.5498 59.693 53.5 59.6092L52.1257 57.2975C52.0817 57.2233 51.9859 57.199 51.9114 57.2425ZM55.2205 54.8963C55.1547 54.9521 55.1459 55.0506 55.2013 55.1168L56.9277 57.1788C56.9903 57.2536 57.1016 57.2635 57.1759 57.2004C57.2502 57.1373 57.2585 57.0259 57.195 56.952L55.4412 54.9132C55.3849 54.8478 55.2863 54.8405 55.2205 54.8963ZM58.0744 52.0132C58.0192 52.0796 58.0276 52.1781 58.0936 52.2338L60.1501 53.9668C60.2246 54.0295 60.3359 54.0201 60.3982 53.9452C60.4605 53.8702 60.4495 53.759 60.3742 53.6972L58.2947 51.9918C58.2279 51.9371 58.1295 51.9469 58.0744 52.0132ZM60.3868 48.6805C60.344 48.7554 60.3693 48.8509 60.4439 48.8942L62.7695 50.2449C62.8538 50.2938 62.9619 50.2652 63.0102 50.1806C63.0586 50.096 63.0285 49.9883 62.9435 49.9405L60.6 48.6212C60.5249 48.5789 60.4296 48.6056 60.3868 48.6805ZM62.0848 44.9963C62.0557 45.0774 62.0973 45.167 62.1782 45.1967L64.7038 46.1209C64.7953 46.1545 64.8968 46.1075 64.9297 46.0157C64.9626 45.9239 64.9141 45.823 64.8221 45.7908L62.2843 44.9007C62.2029 44.8722 62.1139 44.9151 62.0848 44.9963ZM63.1124 41.0727C63.0979 41.1578 63.1546 41.2388 63.2396 41.2538L65.8875 41.7222C65.9836 41.7392 66.0753 41.6752 66.0917 41.579C66.108 41.4828 66.0426 41.3919 65.9463 41.3762L63.2923 40.9436C63.2071 40.9297 63.1268 40.9876 63.1124 41.0727Z" fill="#3F5D7E"/>
<path fill-rule="evenodd" clip-rule="evenodd" d="M40.0539 13.8771C40.1406 13.8766 40.211 13.8065 40.2112 13.7198L40.2152 11.0317C40.2154 10.934 40.1363 10.8546 40.0385 10.8551C39.9408 10.8556 39.8625 10.9358 39.8636 11.0335L39.8951 13.7214C39.8961 13.8081 39.9672 13.8775 40.0539 13.8771ZM40.2906 60.4158C40.2039 60.4162 40.1335 60.4864 40.1333 60.5731L40.1292 63.2611C40.1291 63.3589 40.2082 63.4383 40.3059 63.4378C40.4037 63.4373 40.482 63.3571 40.4808 63.2594L40.4494 60.5715C40.4484 60.4848 40.3773 60.4154 40.2906 60.4158Z" fill="#292929"/>
<path fill-rule="evenodd" clip-rule="evenodd" d="M63.5991 37.1852C63.5123 37.1851 63.4422 37.1147 63.4418 37.028C63.4413 36.9413 63.5107 36.8701 63.5974 36.8691L66.2853 36.8377C66.3831 36.8366 66.4633 36.9149 66.4638 37.0126C66.4643 37.1103 66.3848 37.1895 66.2871 37.1893L63.5991 37.1852ZM16.7457 37.1074C16.8325 37.1075 16.9026 37.1779 16.903 37.2646C16.9035 37.3513 16.8341 37.4224 16.7473 37.4235L14.0595 37.4549C13.9617 37.456 13.8815 37.3777 13.881 37.28C13.8805 37.1823 13.9599 37.1031 14.0577 37.1033L16.7457 37.1074Z" fill="#292929"/>
<circle cx="40.1722" cy="37.1464" r="21.3053" transform="rotate(-0.291361 40.1722 37.1464)" stroke="#292929" stroke-width="0.302204" stroke-dasharray="0.3 3.63"/>
<path d="M39.9521 23.5481L40.0874 50.1417" stroke="#292929" stroke-width="0.302204" stroke-linecap="round"/>
<path d="M53.1663 36.9292L26.5727 37.0644" stroke="#292929" stroke-width="0.302204" stroke-linecap="round"/>
<path d="M38.619 4.11318C38.6562 4.30399 38.7679 4.39892 38.9541 4.39797C39.0822 4.39732 39.1726 4.34005 39.2252 4.22615C39.2778 4.11225 39.3035 3.92717 39.3022 3.6709C39.2493 3.74612 39.1771 3.80451 39.0855 3.84608C38.9938 3.88764 38.8911 3.90872 38.7775 3.90929C38.6228 3.91008 38.4848 3.87935 38.3636 3.81711C38.2424 3.75245 38.1464 3.65744 38.0757 3.53208C38.0073 3.40429 37.9727 3.24974 37.9718 3.06842C37.9709 2.88952 38.0064 2.7334 38.0782 2.60006C38.1525 2.46671 38.2571 2.36343 38.3921 2.29021C38.5296 2.21698 38.6914 2.1799 38.8775 2.17895C39.2353 2.17713 39.4861 2.28707 39.6299 2.50876C39.7736 2.73045 39.8466 3.05768 39.8488 3.49043C39.8504 3.80471 39.8227 4.06475 39.7658 4.27054C39.7112 4.4739 39.6165 4.62912 39.4816 4.73618C39.3492 4.84323 39.167 4.89734 38.9349 4.89852C38.7511 4.89946 38.5938 4.86399 38.4629 4.79213C38.3344 4.72025 38.2348 4.62526 38.1641 4.50716C38.0958 4.38904 38.0564 4.25869 38.046 4.1161L38.619 4.11318ZM38.9165 3.41901C39.018 3.41849 39.0988 3.38786 39.159 3.32712C39.2191 3.26395 39.2489 3.17918 39.2483 3.07281C39.2477 2.95676 39.2159 2.86747 39.1527 2.80493C39.0895 2.74239 39.0047 2.7114 38.8984 2.71194C38.792 2.71248 38.7075 2.74555 38.645 2.81114C38.5849 2.87431 38.5551 2.96149 38.5557 3.0727C38.5562 3.17666 38.5869 3.26112 38.6476 3.32609C38.7108 3.38863 38.8004 3.4196 38.9165 3.41901ZM40.1799 3.52138C40.1777 3.10555 40.2559 2.77756 40.4142 2.53741C40.575 2.29724 40.8342 2.17625 41.192 2.17443C41.5498 2.17261 41.8091 2.29097 41.9699 2.5295C42.1331 2.76802 42.2158 3.09519 42.2179 3.51102C42.22 3.93168 42.1407 4.26209 41.98 4.50226C41.8216 4.74241 41.5635 4.8634 41.2057 4.86522C40.8479 4.86704 40.5874 4.74869 40.4242 4.51017C40.2634 4.27164 40.182 3.94204 40.1799 3.52138ZM41.6087 3.51411C41.6074 3.26994 41.5799 3.08271 41.526 2.95243C41.4721 2.81973 41.3618 2.75381 41.195 2.75466C41.0282 2.7555 40.9185 2.82255 40.866 2.95579C40.8135 3.08661 40.7878 3.27411 40.7891 3.51828C40.7899 3.68268 40.8003 3.81922 40.8202 3.92792C40.8401 4.03419 40.8792 4.12103 40.9376 4.18843C40.9983 4.2534 41.0867 4.28558 41.2028 4.28499C41.3188 4.2844 41.4057 4.25132 41.4634 4.18575C41.5235 4.11775 41.5629 4.03052 41.5817 3.92404C41.6005 3.81515 41.6095 3.67851 41.6087 3.51411Z" fill="#353740"/>
<path d="M37.4736 71.1864C37.5555 71.1207 37.5928 71.0903 37.5855 71.0951C37.8215 70.8981 38.0068 70.7364 38.1416 70.61C38.2787 70.4836 38.3941 70.3512 38.4877 70.2129C38.5813 70.0747 38.6277 69.9403 38.6271 69.8097C38.6266 69.7106 38.6032 69.6333 38.557 69.578C38.5108 69.5226 38.4417 69.4951 38.3498 69.4956C38.258 69.4961 38.1856 69.5315 38.1328 69.6019C38.0824 69.6698 38.0575 69.7667 38.0581 69.8924L37.4598 69.8954C37.4636 69.6899 37.5062 69.518 37.5877 69.3798C37.6716 69.2416 37.7811 69.1395 37.9162 69.0735C38.0536 69.0075 38.2058 68.9741 38.3726 68.9733C38.6603 68.9718 38.877 69.0444 39.0228 69.1912C39.1711 69.3379 39.2458 69.5297 39.247 69.7667C39.2483 70.0253 39.1613 70.2663 38.9859 70.4897C38.8105 70.7106 38.5868 70.9269 38.3147 71.1386L39.2938 71.1336L39.2964 71.6377L37.4759 71.6469L37.4736 71.1864ZM41.2484 69.4809L40.3493 71.6686L39.7146 71.6718L40.625 69.5529L39.4972 69.5587L39.4945 69.0292L41.246 69.0203L41.2484 69.4809ZM41.5034 70.3028C41.5012 69.887 41.5794 69.559 41.7377 69.3188C41.8985 69.0786 42.1578 68.9577 42.5156 68.9558C42.8734 68.954 43.1327 69.0724 43.2934 69.3109C43.4566 69.5494 43.5393 69.8766 43.5414 70.2924C43.5435 70.7131 43.4642 71.0435 43.3035 71.2837C43.1451 71.5238 42.887 71.6448 42.5292 71.6466C42.1714 71.6484 41.9109 71.5301 41.7477 71.2916C41.587 71.053 41.5055 70.7234 41.5034 70.3028ZM42.9322 70.2955C42.9309 70.0513 42.9034 69.8641 42.8495 69.7338C42.7957 69.6011 42.6853 69.5352 42.5185 69.5361C42.3517 69.5369 42.242 69.6039 42.1895 69.7372C42.137 69.868 42.1114 70.0555 42.1126 70.2997C42.1134 70.4641 42.1238 70.6006 42.1437 70.7093C42.1636 70.8156 42.2027 70.9024 42.2611 70.9698C42.3218 71.0348 42.4102 71.067 42.5263 71.0664C42.6423 71.0658 42.7292 71.0327 42.7869 70.9672C42.847 70.8992 42.8864 70.8119 42.9052 70.7054C42.924 70.5966 42.933 70.4599 42.9322 70.2955Z" fill="#353740"/>
<path d="M20.2907 65.6394C20.299 65.3806 20.3826 65.1807 20.5415 65.0397C20.7003 64.8987 20.9164 64.8275 21.1895 64.8261C21.3709 64.8252 21.5257 64.8558 21.6542 64.918C21.7851 64.9802 21.8834 65.0655 21.9492 65.174C22.0175 65.2824 22.052 65.4044 22.0526 65.5397C22.0535 65.6993 22.0142 65.8301 21.935 65.932C21.8557 66.0315 21.763 66.0997 21.6568 66.1365L21.6568 66.151C21.7949 66.1962 21.9041 66.2718 21.9844 66.3778C22.0647 66.4838 22.1053 66.6202 22.1061 66.787C22.1069 66.9369 22.0725 67.07 22.003 67.1864C21.9359 67.3004 21.836 67.3904 21.7034 67.4563C21.5732 67.5222 21.4174 67.5557 21.2361 67.5566C20.946 67.5581 20.7135 67.4879 20.5387 67.3462C20.3663 67.2044 20.2746 66.9897 20.2634 66.7021L20.8654 66.699C20.8684 66.8054 20.899 66.8898 20.9574 66.9524C21.0157 67.0125 21.1005 67.0423 21.2117 67.0418C21.306 67.0413 21.3784 67.0143 21.4289 66.9609C21.4818 66.905 21.508 66.8323 21.5075 66.7429C21.507 66.6268 21.4691 66.5436 21.3938 66.4932C21.3211 66.4404 21.2037 66.4144 21.0417 66.4152L20.9256 66.4158L20.9231 65.9118L21.0391 65.9112C21.1624 65.9105 21.2614 65.8895 21.3362 65.848C21.4133 65.8041 21.4516 65.7277 21.4511 65.619C21.4506 65.5319 21.4261 65.4644 21.3775 65.4162C21.3289 65.3681 21.2623 65.3443 21.1777 65.3447C21.0858 65.3452 21.017 65.3734 20.9714 65.4292C20.9282 65.485 20.9031 65.554 20.8963 65.6363L20.2907 65.6394ZM22.4673 66.1686C22.4652 65.7528 22.5433 65.4248 22.7017 65.1847C22.8624 64.9445 23.1217 64.8235 23.4795 64.8217C23.8373 64.8199 24.0966 64.9382 24.2574 65.1768C24.4206 65.4153 24.5033 65.7424 24.5054 66.1583C24.5075 66.5789 24.4282 66.9094 24.2674 67.1495C24.1091 67.3897 23.851 67.5107 23.4932 67.5125C23.1354 67.5143 22.8749 67.3959 22.7117 67.1574C22.5509 66.9189 22.4695 66.5893 22.4673 66.1686ZM23.8961 66.1614C23.8949 65.9172 23.8674 65.73 23.8135 65.5997C23.7596 65.467 23.6493 65.4011 23.4825 65.4019C23.3157 65.4028 23.206 65.4698 23.1535 65.603C23.101 65.7339 23.0753 65.9214 23.0766 66.1655C23.0774 66.3299 23.0878 66.4665 23.1077 66.5752C23.1276 66.6815 23.1667 66.7683 23.225 66.8357C23.2858 66.9007 23.3742 66.9328 23.4903 66.9323C23.6063 66.9317 23.6932 66.8986 23.7509 66.833C23.811 66.765 23.8504 66.6778 23.8692 66.5713C23.888 66.4624 23.897 66.3258 23.8961 66.1614ZM24.833 66.1566C24.8309 65.7408 24.909 65.4128 25.0673 65.1726C25.2281 64.9325 25.4874 64.8115 25.8452 64.8097C26.203 64.8078 26.4623 64.9262 26.6231 65.1647C26.7863 65.4032 26.8689 65.7304 26.871 66.1462C26.8732 66.5669 26.7939 66.8973 26.6331 67.1375C26.4748 67.3776 26.2167 67.4986 25.8589 67.5004C25.5011 67.5023 25.2406 67.3839 25.0774 67.1454C24.9166 66.9069 24.8351 66.5773 24.833 66.1566ZM26.2618 66.1493C26.2606 65.9052 26.233 65.7179 26.1792 65.5877C26.1253 65.455 26.015 65.389 25.8481 65.3899C25.6813 65.3907 25.5717 65.4578 25.5192 65.591C25.4666 65.7218 25.441 65.9093 25.4422 66.1535C25.4431 66.3179 25.4534 66.4545 25.4733 66.5631C25.4932 66.6694 25.5323 66.7563 25.5907 66.8237C25.6515 66.8886 25.7399 66.9208 25.8559 66.9202C25.972 66.9196 26.0588 66.8866 26.1165 66.821C26.1766 66.753 26.2161 66.6657 26.2349 66.5593C26.2537 66.4504 26.2626 66.3137 26.2618 66.1493Z" fill="#353740"/>
<path d="M22.3159 7.57268C22.2961 7.48333 22.2619 7.41702 22.2133 7.37375C22.1647 7.32806 22.0957 7.30544 22.0063 7.3059C21.8685 7.3066 21.7697 7.36754 21.7098 7.48873C21.65 7.6075 21.6195 7.79623 21.6184 8.05492C21.6712 7.97004 21.747 7.90317 21.8459 7.85431C21.9472 7.80544 22.0582 7.7807 22.1791 7.78009C22.4161 7.77888 22.6062 7.85286 22.7496 8.00203C22.8954 8.15118 22.969 8.35993 22.9704 8.62829C22.9713 8.80477 22.9358 8.95968 22.864 9.09302C22.7945 9.22634 22.6911 9.33083 22.5537 9.40648C22.4187 9.48211 22.2581 9.5204 22.0719 9.52135C21.6996 9.52324 21.4404 9.40851 21.2941 9.17716C21.1479 8.94339 21.0736 8.60771 21.0714 8.17013C21.0691 7.71078 21.1435 7.36952 21.2947 7.14632C21.4483 6.9207 21.6943 6.80703 22.0327 6.80531C22.2141 6.80438 22.3666 6.83987 22.4902 6.91177C22.6163 6.98124 22.711 7.07384 22.7745 7.18957C22.8404 7.30528 22.8797 7.43201 22.8925 7.56975L22.3159 7.57268ZM22.0329 8.27041C21.929 8.27093 21.8421 8.30281 21.7723 8.36602C21.7049 8.4268 21.6715 8.51401 21.6721 8.62764C21.6727 8.74368 21.7046 8.83418 21.7678 8.89914C21.8334 8.96408 21.9254 8.99625 22.0439 8.99565C22.1503 8.99511 22.2335 8.96325 22.2936 8.90009C22.3561 8.83449 22.3871 8.74609 22.3866 8.63488C22.386 8.52126 22.3553 8.43196 22.2945 8.36699C22.2338 8.30202 22.1466 8.26983 22.0329 8.27041ZM23.3187 8.14057C23.3165 7.72474 23.3947 7.39675 23.553 7.1566C23.7138 6.91643 23.973 6.79544 24.3309 6.79362C24.6887 6.7918 24.9479 6.91015 25.1087 7.14869C25.2719 7.3872 25.3546 7.71438 25.3567 8.1302C25.3588 8.55087 25.2795 8.88128 25.1188 9.12144C24.9604 9.3616 24.7023 9.48258 24.3445 9.4844C23.9867 9.48622 23.7262 9.36787 23.563 9.12936C23.4023 8.89083 23.3208 8.56123 23.3187 8.14057ZM24.7475 8.1333C24.7462 7.88912 24.7187 7.7019 24.6648 7.57162C24.611 7.43892 24.5006 7.37299 24.3338 7.37384C24.167 7.37469 24.0573 7.44173 24.0048 7.57497C23.9523 7.70579 23.9267 7.89329 23.9279 8.13747C23.9287 8.30187 23.9391 8.43841 23.959 8.5471C23.9789 8.65338 24.018 8.74022 24.0764 8.80761C24.1371 8.87258 24.2255 8.90477 24.3416 8.90418C24.4576 8.90359 24.5445 8.87051 24.6022 8.80494C24.6623 8.73694 24.7017 8.6497 24.7205 8.54323C24.7393 8.43434 24.7483 8.2977 24.7475 8.1333Z" fill="#353740"/>
<path d="M55.0249 66.8662C55.1068 66.8005 55.1441 66.77 55.1369 66.7749C55.3728 66.5779 55.5582 66.4162 55.6929 66.2898C55.8301 66.1634 55.9454 66.031 56.039 65.8927C56.1326 65.7544 56.1791 65.62 56.1784 65.4895C56.1779 65.3904 56.1545 65.3131 56.1083 65.2577C56.0621 65.2024 55.9931 65.1749 55.9012 65.1754C55.8093 65.1758 55.737 65.2113 55.6842 65.2816C55.6337 65.3496 55.6088 65.4464 55.6095 65.5721L55.0111 65.5752C55.0149 65.3697 55.0576 65.1978 55.1391 65.0596C55.223 64.9213 55.3325 64.8192 55.4675 64.7533C55.605 64.6873 55.7571 64.6539 55.9239 64.653C56.2116 64.6516 56.4284 64.7242 56.5742 64.871C56.7224 65.0177 56.7971 65.2095 56.7983 65.4464C56.7996 65.7051 56.7126 65.9461 56.5373 66.1694C56.3619 66.3903 56.1382 66.6066 55.866 66.8184L56.8452 66.8134L56.8477 67.3174L55.0273 67.3267L55.0249 66.8662ZM57.1331 66.8808L57.1305 66.3804L58.2681 64.7354L58.9608 64.7319L58.9689 66.3348L59.2663 66.3332L59.269 66.87L58.9716 66.8715L58.974 67.3429L58.3539 67.3461L58.3515 66.8746L57.1331 66.8808ZM58.3876 65.4166L57.7831 66.3408L58.3923 66.3377L58.3876 65.4166ZM59.5682 65.9799C59.5661 65.5641 59.6442 65.2361 59.8026 64.996C59.9633 64.7558 60.2226 64.6348 60.5804 64.633C60.9382 64.6312 61.1975 64.7495 61.3583 64.9881C61.5215 65.2266 61.6041 65.5538 61.6063 65.9696C61.6084 66.3902 61.5291 66.7207 61.3683 66.9608C61.21 67.201 60.9519 67.322 60.5941 67.3238C60.2363 67.3256 59.9758 67.2073 59.8126 66.9687C59.6518 66.7302 59.5704 66.4006 59.5682 65.9799ZM60.997 65.9727C60.9958 65.7285 60.9682 65.5413 60.9144 65.411C60.8605 65.2783 60.7502 65.2124 60.5834 65.2132C60.4165 65.2141 60.3069 65.2811 60.2544 65.4143C60.2019 65.5452 60.1762 65.7327 60.1775 65.9768C60.1783 66.1412 60.1887 66.2778 60.2085 66.3865C60.2284 66.4928 60.2676 66.5796 60.3259 66.647C60.3867 66.712 60.4751 66.7441 60.5911 66.7436C60.7072 66.743 60.7941 66.7099 60.8517 66.6443C60.9118 66.5763 60.9513 66.4891 60.9701 66.3826C60.9889 66.2737 60.9979 66.1371 60.997 65.9727Z" fill="#353740"/>
<path d="M55.3284 7.2669L55.3254 6.6903L56.3299 6.68519L56.3434 9.33246L55.6979 9.33574L55.6874 7.26507L55.3284 7.2669ZM56.7433 8.8336C56.8252 8.7679 56.8625 8.73749 56.8553 8.74236C57.0912 8.54533 57.2766 8.38362 57.4113 8.25721C57.5485 8.1308 57.6638 7.99845 57.7574 7.86017C57.851 7.72188 57.8975 7.58747 57.8968 7.45692C57.8963 7.3578 57.8729 7.28055 57.8267 7.22518C57.7805 7.16981 57.7115 7.14236 57.6196 7.14282C57.5277 7.14329 57.4554 7.17871 57.4025 7.24909C57.3521 7.31705 57.3272 7.41388 57.3279 7.53959L56.7295 7.54264C56.7333 7.33712 56.7759 7.16525 56.8574 7.02702C56.9414 6.88879 57.0508 6.78669 57.1859 6.72073C57.3234 6.65475 57.4755 6.62134 57.6423 6.62049C57.93 6.61903 58.1468 6.69167 58.2926 6.8384C58.4408 6.98513 58.5155 7.17695 58.5167 7.41387C58.518 7.67256 58.431 7.91356 58.2557 8.13687C58.0803 8.35777 57.8566 8.57408 57.5844 8.7858L58.5636 8.78082L58.5661 9.28489L56.7457 9.29415L56.7433 8.8336ZM58.8324 7.95987C58.8303 7.54404 58.9084 7.21605 59.0668 6.9759C59.2275 6.73573 59.4868 6.61474 59.8446 6.61292C60.2024 6.6111 60.4617 6.72946 60.6225 6.96799C60.7857 7.2065 60.8683 7.53368 60.8705 7.9495C60.8726 8.37017 60.7933 8.70058 60.6325 8.94075C60.4742 9.1809 60.2161 9.30189 59.8583 9.30371C59.5005 9.30552 59.24 9.18718 59.0768 8.94866C58.916 8.71013 58.8346 8.38053 58.8324 7.95987ZM60.2612 7.9526C60.26 7.70843 60.2324 7.5212 60.1786 7.39092C60.1247 7.25822 60.0144 7.19229 59.8476 7.19314C59.6807 7.19399 59.5711 7.26103 59.5186 7.39427C59.4661 7.52509 59.4404 7.71259 59.4417 7.95677C59.4425 8.12117 59.4529 8.25771 59.4727 8.36641C59.4926 8.47268 59.5318 8.55952 59.5901 8.62692C59.6509 8.69188 59.7393 8.72407 59.8553 8.72348C59.9714 8.72289 60.0583 8.68981 60.1159 8.62424C60.176 8.55624 60.2155 8.46901 60.2343 8.36253C60.2531 8.25364 60.2621 8.117 60.2612 7.9526Z" fill="#353740"/>
<path d="M7.62177 53.6155C7.63012 53.3568 7.71373 53.1569 7.87257 53.0158C8.03142 52.8748 8.24744 52.8036 8.52063 52.8022C8.70195 52.8013 8.85683 52.8319 8.98529 52.8941C9.11616 52.9563 9.21451 53.0417 9.28033 53.1501C9.34858 53.2586 9.38305 53.3805 9.38374 53.5159C9.38455 53.6754 9.34532 53.8062 9.26606 53.9081C9.18678 54.0077 9.09405 54.0758 8.98786 54.1126L8.98793 54.1271C9.12597 54.1724 9.23515 54.248 9.31547 54.3539C9.39579 54.4599 9.43637 54.5963 9.43722 54.7631C9.43799 54.913 9.40361 55.0461 9.33409 55.1625C9.26697 55.2765 9.1671 55.3665 9.03446 55.4324C8.90424 55.4984 8.74847 55.5318 8.56715 55.5327C8.27704 55.5342 8.04459 55.4641 7.8698 55.3223C7.69742 55.1805 7.60567 54.9658 7.59453 54.6782L8.19652 54.6751C8.19947 54.7815 8.23012 54.866 8.28847 54.9285C8.3468 54.9887 8.43157 55.0185 8.54278 55.0179C8.63706 55.0174 8.70945 54.9904 8.75995 54.937C8.81286 54.8811 8.83908 54.8085 8.83863 54.719C8.83804 54.603 8.80014 54.5197 8.72494 54.4694C8.65214 54.4165 8.53475 54.3905 8.37277 54.3914L8.25673 54.392L8.25416 53.8879L8.37021 53.8873C8.49351 53.8867 8.59252 53.8656 8.66726 53.8241C8.7444 53.7802 8.78269 53.7039 8.78214 53.5951C8.7817 53.5081 8.75718 53.4405 8.70858 53.3924C8.65998 53.3443 8.59338 53.3204 8.50876 53.3209C8.41689 53.3213 8.34813 53.3495 8.30248 53.4053C8.25925 53.4611 8.23421 53.5302 8.22738 53.6124L7.62177 53.6155ZM9.81744 53.6043C9.82579 53.3456 9.90939 53.1457 10.0682 53.0047C10.2271 52.8636 10.4431 52.7924 10.7163 52.791C10.8976 52.7901 11.0525 52.8208 11.181 52.883C11.3118 52.9452 11.4102 53.0305 11.476 53.139C11.5442 53.2474 11.5787 53.3693 11.5794 53.5047C11.5802 53.6643 11.541 53.795 11.4617 53.897C11.3824 53.9965 11.2897 54.0647 11.1835 54.1015L11.1836 54.116C11.3216 54.1612 11.4308 54.2368 11.5111 54.3428C11.5915 54.4487 11.632 54.5851 11.6329 54.7519C11.6337 54.9018 11.5993 55.035 11.5298 55.1514C11.4626 55.2654 11.3628 55.3553 11.2301 55.4213C11.0999 55.4872 10.9441 55.5206 10.7628 55.5216C10.4727 55.523 10.2403 55.4529 10.0655 55.3111C9.89309 55.1694 9.80134 54.9547 9.7902 54.667L10.3922 54.664C10.3951 54.7703 10.4258 54.8548 10.4841 54.9174C10.5425 54.9775 10.6272 55.0073 10.7384 55.0067C10.8327 55.0062 10.9051 54.9793 10.9556 54.9258C11.0085 54.87 11.0348 54.7973 11.0343 54.7078C11.0337 54.5918 10.9958 54.5086 10.9206 54.4582C10.8478 54.4054 10.7304 54.3794 10.5684 54.3802L10.4524 54.3808L10.4498 53.8767L10.5659 53.8761C10.6892 53.8755 10.7882 53.8545 10.8629 53.813C10.9401 53.7691 10.9784 53.6927 10.9778 53.5839C10.9774 53.4969 10.9528 53.4293 10.9043 53.3812C10.8557 53.3331 10.789 53.3093 10.7044 53.3097C10.6126 53.3102 10.5438 53.3383 10.4981 53.3942C10.4549 53.45 10.4299 53.519 10.423 53.6012L9.81744 53.6043ZM11.9941 54.1336C11.992 53.7178 12.0701 53.3898 12.2284 53.1496C12.3892 52.9095 12.6485 52.7885 13.0063 52.7867C13.3641 52.7848 13.6234 52.9032 13.7842 53.1417C13.9474 53.3802 14.03 53.7074 14.0321 54.1232C14.0343 54.5439 13.955 54.8743 13.7942 55.1145C13.6359 55.3546 13.3778 55.4756 13.02 55.4774C12.6622 55.4793 12.4017 55.3609 12.2385 55.1224C12.0777 54.8839 11.9962 54.5543 11.9941 54.1336ZM13.4229 54.1263C13.4217 53.8822 13.3941 53.6949 13.3403 53.5647C13.2864 53.432 13.1761 53.366 13.0092 53.3669C12.8424 53.3677 12.7328 53.4348 12.6803 53.568C12.6277 53.6988 12.6021 53.8863 12.6033 54.1305C12.6042 54.2949 12.6145 54.4314 12.6344 54.5401C12.6543 54.6464 12.6934 54.7333 12.7518 54.8007C12.8126 54.8656 12.901 54.8978 13.017 54.8972C13.1331 54.8966 13.2199 54.8635 13.2776 54.798C13.3377 54.73 13.3772 54.6427 13.396 54.5363C13.4148 54.4274 13.4237 54.2907 13.4229 54.1263Z" fill="#353740"/>
<path d="M8.75673 19.7622C8.76508 19.5035 8.84868 19.3036 9.00753 19.1626C9.16638 19.0215 9.3824 18.9503 9.65559 18.9489C9.83691 18.948 9.99179 18.9787 10.1202 19.0409C10.2511 19.1031 10.3495 19.1884 10.4153 19.2968C10.4835 19.4053 10.518 19.5272 10.5187 19.6626C10.5195 19.8222 10.4803 19.9529 10.401 20.0548C10.3217 20.1544 10.229 20.2225 10.1228 20.2593L10.1229 20.2739C10.2609 20.3191 10.3701 20.3947 10.4504 20.5007C10.5307 20.6066 10.5713 20.743 10.5722 20.9098C10.5729 21.0597 10.5386 21.1929 10.469 21.3093C10.4019 21.4232 10.3021 21.5132 10.1694 21.5792C10.0392 21.6451 9.88343 21.6785 9.70211 21.6794C9.412 21.6809 9.17955 21.6108 9.00475 21.469C8.83238 21.3273 8.74062 21.1126 8.72949 20.8249L9.33147 20.8219C9.33443 20.9282 9.36508 21.0127 9.42342 21.0752C9.48175 21.1354 9.56652 21.1652 9.67773 21.1646C9.77202 21.1641 9.84441 21.1372 9.89491 21.0837C9.94781 21.0278 9.97404 20.9552 9.97358 20.8657C9.97299 20.7497 9.9351 20.6665 9.85989 20.6161C9.7871 20.5633 9.66971 20.5373 9.50773 20.5381L9.39168 20.5387L9.38912 20.0346L9.50516 20.034C9.62846 20.0334 9.72748 20.0123 9.80222 19.9709C9.87936 19.9269 9.91765 19.8506 9.9171 19.7418C9.91666 19.6548 9.89214 19.5872 9.84354 19.5391C9.79494 19.491 9.72833 19.4672 9.64372 19.4676C9.55185 19.468 9.48309 19.4962 9.43744 19.552C9.3942 19.6079 9.36917 19.6769 9.36233 19.7591L8.75673 19.7622ZM10.9334 20.2915C10.9313 19.8757 11.0094 19.5477 11.1677 19.3075C11.3285 19.0674 11.5878 18.9464 11.9456 18.9445C12.3034 18.9427 12.5627 19.0611 12.7235 19.2996C12.8866 19.5381 12.9693 19.8653 12.9714 20.2811C12.9736 20.7018 12.8942 21.0322 12.7335 21.2724C12.5751 21.5125 12.3171 21.6335 11.9593 21.6353C11.6015 21.6371 11.341 21.5188 11.1778 21.2803C11.017 21.0417 10.9355 20.7122 10.9334 20.2915ZM12.3622 20.2842C12.3609 20.04 12.3334 19.8528 12.2795 19.7225C12.2257 19.5898 12.1153 19.5239 11.9485 19.5248C11.7817 19.5256 11.6721 19.5927 11.6195 19.7259C11.567 19.8567 11.5414 20.0442 11.5426 20.2884C11.5435 20.4528 11.5538 20.5893 11.5737 20.698C11.5936 20.8043 11.6327 20.8911 11.6911 20.9585C11.7519 21.0235 11.8403 21.0557 11.9563 21.0551C12.0724 21.0545 12.1592 21.0214 12.2169 20.9559C12.277 20.8879 12.3165 20.8006 12.3353 20.6942C12.354 20.5853 12.363 20.4486 12.3622 20.2842Z" fill="#353740"/>
<path d="M68.6079 54.7087C68.6898 54.643 68.7271 54.6126 68.7199 54.6175C68.9558 54.4204 69.1411 54.2587 69.2759 54.1323C69.4131 54.0059 69.5284 53.8735 69.622 53.7353C69.7156 53.597 69.7621 53.4626 69.7614 53.332C69.7609 53.2329 69.7375 53.1556 69.6913 53.1003C69.6451 53.0449 69.5761 53.0175 69.4842 53.0179C69.3923 53.0184 69.32 53.0538 69.2671 53.1242C69.2167 53.1921 69.1918 53.289 69.1925 53.4147L68.5941 53.4177C68.5979 53.2122 68.6405 53.0403 68.722 52.9021C68.8059 52.7639 68.9154 52.6618 69.0505 52.5958C69.188 52.5299 69.3401 52.4964 69.5069 52.4956C69.7946 52.4941 70.0114 52.5668 70.1572 52.7135C70.3054 52.8602 70.3801 53.052 70.3813 53.289C70.3826 53.5477 70.2956 53.7887 70.1202 54.012C69.9449 54.2329 69.7211 54.4492 69.449 54.6609L70.4281 54.6559L70.4307 55.16L68.6103 55.1692L68.6079 54.7087ZM70.6281 53.1245L70.6252 52.5479L71.6297 52.5428L71.6432 55.1901L70.9977 55.1934L70.9871 53.1227L70.6281 53.1245ZM72.0604 53.828C72.0583 53.4122 72.1364 53.0842 72.2948 52.8441C72.4556 52.6039 72.7148 52.4829 73.0726 52.4811C73.4304 52.4793 73.6897 52.5976 73.8505 52.8362C74.0137 53.0747 74.0964 53.4018 74.0985 53.8177C74.1006 54.2383 74.0213 54.5687 73.8605 54.8089C73.7022 55.0491 73.4441 55.17 73.0863 55.1719C72.7285 55.1737 72.468 55.0553 72.3048 54.8168C72.144 54.5783 72.0626 54.2487 72.0604 53.828ZM73.4892 53.8208C73.488 53.5766 73.4605 53.3894 73.4066 53.2591C73.3527 53.1264 73.2424 53.0605 73.0756 53.0613C72.9088 53.0622 72.7991 53.1292 72.7466 53.2624C72.6941 53.3933 72.6684 53.5808 72.6697 53.8249C72.6705 53.9893 72.6809 54.1259 72.7008 54.2346C72.7207 54.3408 72.7598 54.4277 72.8181 54.4951C72.8789 54.56 72.9673 54.5922 73.0834 54.5916C73.1994 54.5911 73.2863 54.558 73.344 54.4924C73.4041 54.4244 73.4435 54.3372 73.4623 54.2307C73.4811 54.1218 73.4901 53.9852 73.4892 53.8208Z" fill="#353740"/>
<path d="M68.4386 19.2883L68.4357 18.7117L69.4402 18.7066L69.4536 21.3538L68.8081 21.3571L68.7976 19.2864L68.4386 19.2883ZM71.7311 19.2353L70.5997 19.241L70.6022 19.7415C70.6503 19.688 70.7178 19.6442 70.8046 19.6099C70.8915 19.5756 70.9857 19.5582 71.0872 19.5577C71.2685 19.5568 71.4186 19.5971 71.5375 19.6787C71.6588 19.7603 71.7476 19.8662 71.8039 19.9965C71.8601 20.1267 71.8887 20.268 71.8894 20.4203C71.8909 20.7032 71.8122 20.9284 71.6535 21.0961C71.4948 21.2613 71.2704 21.3446 70.9803 21.3461C70.7869 21.3471 70.6187 21.3153 70.4757 21.2507C70.3327 21.1838 70.2222 21.0912 70.1443 20.9732C70.0663 20.8551 70.0233 20.7187 70.0153 20.564L70.6209 20.561C70.6358 20.6358 70.6711 20.6985 70.727 20.749C70.7829 20.7971 70.8591 20.8209 70.9558 20.8204C71.0695 20.8198 71.1539 20.7831 71.2091 20.7103C71.2644 20.6375 71.2917 20.5406 71.2911 20.4197C71.2905 20.3013 71.261 20.2108 71.2026 20.1482C71.1443 20.0856 71.0595 20.0546 70.9483 20.0552C70.8661 20.0556 70.7985 20.0765 70.7456 20.1179C70.6926 20.1568 70.6578 20.209 70.6412 20.2744L70.0428 20.2774L70.0348 18.6999L71.7283 18.6913L71.7311 19.2353ZM72.2295 19.9798C72.2274 19.564 72.3055 19.236 72.4638 18.9958C72.6246 18.7557 72.8839 18.6347 73.2417 18.6328C73.5995 18.631 73.8588 18.7494 74.0196 18.9879C74.1828 19.2264 74.2654 19.5536 74.2675 19.9694C74.2697 20.3901 74.1904 20.7205 74.0296 20.9607C73.8713 21.2008 73.6132 21.3218 73.2554 21.3236C72.8976 21.3254 72.6371 21.2071 72.4739 20.9686C72.3131 20.73 72.2316 20.4005 72.2295 19.9798ZM73.6583 19.9725C73.6571 19.7283 73.6295 19.5411 73.5757 19.4108C73.5218 19.2781 73.4115 19.2122 73.2446 19.2131C73.0778 19.2139 72.9682 19.281 72.9157 19.4142C72.8631 19.545 72.8375 19.7325 72.8387 19.9767C72.8396 20.1411 72.8499 20.2776 72.8698 20.3863C72.8897 20.4926 72.9288 20.5794 72.9872 20.6468C73.048 20.7118 73.1364 20.744 73.2524 20.7434C73.3685 20.7428 73.4553 20.7097 73.513 20.6442C73.5731 20.5762 73.6126 20.4889 73.6314 20.3825C73.6502 20.2736 73.6591 20.1369 73.6583 19.9725Z" fill="#353740"/>
<path d="M5.29333 36.9416C5.29121 36.5257 5.36933 36.1977 5.52767 35.9576C5.68843 35.7174 5.94772 35.5964 6.30552 35.5946C6.66332 35.5928 6.92262 35.7111 7.08339 35.9497C7.24659 36.1882 7.32925 36.5154 7.33136 36.9312C7.3335 37.3519 7.25419 37.6823 7.09343 37.9224C6.93508 38.1626 6.67701 38.2836 6.3192 38.2854C5.9614 38.2872 5.7009 38.1689 5.5377 37.9304C5.37692 37.6918 5.29547 37.3622 5.29333 36.9416ZM6.72213 36.9343C6.72088 36.6901 6.69334 36.5029 6.63949 36.3726C6.58562 36.2399 6.47528 36.174 6.30847 36.1748C6.14166 36.1757 6.03199 36.2427 5.97948 36.376C5.92696 36.5068 5.90132 36.6943 5.90256 36.9385C5.9034 37.1029 5.91376 37.2394 5.93366 37.3481C5.95354 37.4544 5.99266 37.5412 6.05103 37.6086C6.1118 37.6736 6.20021 37.7058 6.31625 37.7052C6.4323 37.7046 6.51916 37.6715 6.57686 37.6059C6.63695 37.5379 6.6764 37.4507 6.6952 37.3442C6.71399 37.2353 6.72296 37.0987 6.72213 36.9343Z" fill="#353740"/>
<path d="M73.9592 35.8816L73.9563 35.305L74.9608 35.2999L74.9743 37.9471L74.3288 37.9504L74.3182 35.8797L73.9592 35.8816ZM75.3916 36.5851C75.3894 36.1692 75.4676 35.8412 75.6259 35.6011C75.7867 35.3609 76.0459 35.2399 76.4038 35.2381C76.7616 35.2363 77.0208 35.3547 77.1816 35.5932C77.3448 35.8317 77.4275 36.1589 77.4296 36.5747C77.4317 36.9954 77.3524 37.3258 77.1917 37.5659C77.0333 37.8061 76.7752 37.9271 76.4174 37.9289C76.0596 37.9307 75.7991 37.8124 75.6359 37.5739C75.4752 37.3353 75.3937 37.0057 75.3916 36.5851ZM76.8204 36.5778C76.8191 36.3336 76.7916 36.1464 76.7377 36.0161C76.6839 35.8834 76.5735 35.8175 76.4067 35.8183C76.2399 35.8192 76.1302 35.8862 76.0777 36.0195C76.0252 36.1503 75.9995 36.3378 76.0008 36.582C76.0016 36.7464 76.012 36.8829 76.0319 36.9916C76.0518 37.0979 76.0909 37.1847 76.1493 37.2521C76.21 37.3171 76.2984 37.3493 76.4145 37.3487C76.5305 37.3481 76.6174 37.315 76.6751 37.2494C76.7352 37.1814 76.7746 37.0942 76.7934 36.9877C76.8122 36.8788 76.8212 36.7422 76.8204 36.5778ZM77.7572 36.573C77.7551 36.1572 77.8332 35.8292 77.9916 35.5891C78.1523 35.3489 78.4116 35.2279 78.7694 35.2261C79.1272 35.2243 79.3865 35.3426 79.5473 35.5812C79.7105 35.8197 79.7931 36.1468 79.7952 36.5627C79.7974 36.9833 79.7181 37.3137 79.5573 37.5539C79.399 37.7941 79.1409 37.9151 78.7831 37.9169C78.4253 37.9187 78.1648 37.8003 78.0016 37.5618C77.8408 37.3233 77.7594 36.9937 77.7572 36.573ZM79.186 36.5658C79.1848 36.3216 79.1572 36.1344 79.1034 36.0041C79.0495 35.8714 78.9392 35.8055 78.7724 35.8063C78.6055 35.8072 78.4959 35.8742 78.4434 36.0074C78.3908 36.1383 78.3652 36.3258 78.3664 36.5699C78.3673 36.7343 78.3776 36.8709 78.3975 36.9796C78.4174 37.0858 78.4565 37.1727 78.5149 37.2401C78.5757 37.305 78.6641 37.3372 78.7801 37.3366C78.8962 37.3361 78.9831 37.303 79.0407 37.2374C79.1008 37.1694 79.1403 37.0822 79.1591 36.9757C79.1779 36.8668 79.1868 36.7302 79.186 36.5658Z" fill="#353740"/>
<path d="M8.8973 37.8604C8.29113 37.5145 8.28669 36.6421 8.88932 36.2901L10.9985 35.058C11.6011 34.706 12.3588 35.1384 12.3624 35.8363L12.3748 38.2789C12.3784 38.9768 11.6251 39.4168 11.0189 39.071L8.8973 37.8604Z" fill="#FF4B4B"/>
<defs>
<clipPath id="clip0_152_2706">
<rect width="7.25288" height="7.25288" fill="white" transform="translate(36.5259 33.2363) rotate(-0.291361)"/>
</clipPath>
</defs>
</svg>
