<svg width="24" height="25" viewBox="0 0 24 25" fill="none" xmlns="http://www.w3.org/2000/svg">
<path d="M18.8284 19.3284C17.6569 20.5 15.7712 20.5 12 20.5C8.22876 20.5 6.34315 20.5 5.17157 19.3284C4 18.1569 4 16.2712 4 12.5C4 8.72876 4 6.84315 5.17157 5.67157C6.34315 4.5 8.22876 4.5 12 4.5C15.7712 4.5 17.6569 4.5 18.8284 5.67157C20 6.84315 20 8.72876 20 12.5C20 16.2712 20 18.1569 18.8284 19.3284Z" stroke="#353740" stroke-width="1.5" stroke-linecap="round" stroke-linejoin="round"/>
<path d="M8 2.5V4.5M16 2.5V4.5M12 2.5V4.5M8 20.5V22.5M12 20.5V22.5M16 20.5V22.5M22 16.5H20M4 8.5H2M4 16.5H2M4 12.5H2M22 8.5H20M22 12.5H20" stroke="#353740" stroke-width="1.5" stroke-linecap="round" stroke-linejoin="round"/>
</svg>
