<svg width="36" height="36" viewBox="0 0 36 36" fill="none" xmlns="http://www.w3.org/2000/svg">
<path d="M18 10.5C9.71572 10.5 3 11.8431 3 13.5C3 14.7086 6.57323 15.7502 11.722 16.2254C12.6493 16.311 13.2855 17.2082 13.3844 18.1341C13.6415 20.5413 15.576 22.5 18 22.5C20.424 22.5 22.3584 20.5413 22.6155 18.1341C22.7145 17.2082 23.3506 16.311 24.278 16.2254C29.4268 15.7502 33 14.7086 33 13.5C33 11.8431 26.2842 10.5 18 10.5Z" stroke="#0800A1" stroke-width="3" stroke-linejoin="round"/>
<path d="M17.9997 18H18.0132" stroke="#0800A1" stroke-width="3" stroke-linecap="round" stroke-linejoin="round"/>
<path d="M6 4.5H9M9 4.5H12M9 4.5V10.5" stroke="#0800A1" stroke-width="3" stroke-linecap="round" stroke-linejoin="round"/>
<path d="M24 4.5H27M27 4.5H30M27 4.5V10.5" stroke="#0800A1" stroke-width="3" stroke-linecap="round" stroke-linejoin="round"/>
<path d="M7.5 31.5V29.25C7.5 25.1079 10.8579 21.75 15 21.75M28.5 31.5V29.25C28.5 25.1079 25.1421 21.75 21 21.75" stroke="#0800A1" stroke-width="3" stroke-linecap="round" stroke-linejoin="round"/>
</svg>
