<svg width="24" height="25" viewBox="0 0 24 25" fill="none" xmlns="http://www.w3.org/2000/svg">
<path d="M12 7.5C6.47715 7.5 2 8.39543 2 9.5C2 10.3057 4.38215 11.0001 7.81468 11.3169C8.43288 11.374 8.85702 11.9721 8.92296 12.5894C9.09436 14.1942 10.384 15.5 12 15.5C13.616 15.5 14.9056 14.1942 15.077 12.5894C15.143 11.9721 15.5671 11.374 16.1853 11.3169C19.6179 11.0001 22 10.3057 22 9.5C22 8.39543 17.5228 7.5 12 7.5Z" stroke="#353740" stroke-width="1.5" stroke-linejoin="round"/>
<path d="M11.9998 12.5H12.0088" stroke="#353740" stroke-width="2" stroke-linecap="round" stroke-linejoin="round"/>
<path d="M4 3.5H6M6 3.5H8M6 3.5V7.5" stroke="#353740" stroke-width="1.5" stroke-linecap="round" stroke-linejoin="round"/>
<path d="M16 3.5H18M18 3.5H20M18 3.5V7.5" stroke="#353740" stroke-width="1.5" stroke-linecap="round" stroke-linejoin="round"/>
<path d="M5 21.5V20C5 17.2386 7.23858 15 10 15M19 21.5V20C19 17.2386 16.7614 15 14 15" stroke="#353740" stroke-width="1.5" stroke-linecap="round" stroke-linejoin="round"/>
</svg>
