<svg width="40" height="40" viewBox="0 0 40 40" fill="none" xmlns="http://www.w3.org/2000/svg">
<path d="M33.8001 30.9523L34.8301 31.2293C35.6191 31.4414 36.0138 31.5476 36.3399 31.2976M36.3399 31.2976C36.3401 31.2974 36.3398 31.2976 36.3399 31.2976ZM36.3399 31.2976C36.6659 31.0474 36.6666 30.6979 36.6666 29.9999C36.6666 26.3181 33.6818 23.3333 29.9999 23.3333C28.5389 23.3333 27.1876 23.8033 26.0891 24.6003M26.1904 29.0476L25.1694 28.7721C24.3814 28.5594 23.9876 28.4531 23.6613 28.7019C23.6604 28.7026 23.6593 28.7034 23.6586 28.7041C23.3333 28.9543 23.3333 29.3028 23.3333 29.9999C23.3333 33.6818 26.3181 36.6666 29.9999 36.6666C31.4123 36.6666 32.7221 36.2274 33.8001 35.4781" stroke="#3027F1" stroke-width="1.5" stroke-linecap="round" stroke-linejoin="round"/>
<path d="M36.6666 19.9999V15.3624C36.6666 12.1297 36.6666 10.5134 35.6903 9.50909C34.7139 8.50482 33.1426 8.50482 29.9999 8.50482H26.5356C25.0066 8.50482 24.9939 8.50185 23.6191 7.81382L18.0664 5.03515C15.748 3.87499 14.5888 3.2949 13.3539 3.33522C12.119 3.37553 10.9979 4.03005 8.75567 5.3391L6.70922 6.53387C5.06224 7.4954 4.23874 7.97619 3.78599 8.77599C3.33325 9.5758 3.33325 10.5498 3.33325 12.4978V26.1928C3.33325 28.7523 3.33325 30.0321 3.90369 30.7444C4.28327 31.2183 4.81519 31.5369 5.40325 31.6426C6.28702 31.8013 7.36905 31.1696 9.53304 29.9061C11.0025 29.0483 12.4168 28.1573 14.1747 28.3989C15.6477 28.6013 17.0166 29.5308 18.3333 30.1896" stroke="#3027F1" stroke-width="1.5" stroke-linecap="round" stroke-linejoin="round"/>
<path d="M13.3333 3.33325V28.3333" stroke="#3027F1" stroke-width="1.5" stroke-linejoin="round"/>
<path d="M25 8.33325V19.1666" stroke="#3027F1" stroke-width="1.5" stroke-linecap="round" stroke-linejoin="round"/>
</svg>
