<svg width="40" height="39" viewBox="0 0 40 39" fill="none" xmlns="http://www.w3.org/2000/svg">
<path d="M6.24328 14.3795L4.08224 12.2185C6.45451 7.19775 11.1828 3.54187 16.8535 2.6482C17.5196 2.55072 17.9746 1.93328 17.8609 1.25085C17.7634 0.584663 17.1297 0.129707 16.4635 0.243446C10.2729 1.21835 5.07339 5.05296 2.24618 10.3824C0.800071 13.0959 -0.207328 16.6056 0.036398 20.5702L6.24328 14.3795ZM32.7444 24.616L34.9054 26.777C32.5331 31.7978 27.8049 35.4537 22.1342 36.3473C21.468 36.4448 21.013 37.0623 21.1268 37.7447C21.2243 38.4109 21.858 38.8658 22.5241 38.7521C28.7148 37.7772 33.9143 33.9426 36.7415 28.6131C38.1876 25.8996 39.195 22.39 38.9512 18.4254L32.7444 24.616Z" fill="black"/>
<path d="M7.16653 26V23.7841L12.3441 18.9901C12.7844 18.5639 13.1537 18.1804 13.452 17.8395C13.7551 17.4986 13.9847 17.1648 14.141 16.8381C14.2972 16.5066 14.3753 16.1491 14.3753 15.7656C14.3753 15.3395 14.2783 14.9725 14.0841 14.6648C13.89 14.3523 13.6249 14.1132 13.2887 13.9474C12.9525 13.777 12.5714 13.6918 12.1452 13.6918C11.7001 13.6918 11.3119 13.7817 10.9804 13.9616C10.649 14.1416 10.3933 14.3996 10.2134 14.7358C10.0335 15.072 9.94351 15.4721 9.94351 15.9361H7.02448C7.02448 14.9844 7.23992 14.1581 7.67079 13.4574C8.10166 12.7566 8.70535 12.2145 9.48187 11.831C10.2584 11.4474 11.1533 11.2557 12.1665 11.2557C13.2082 11.2557 14.1149 11.4403 14.8867 11.8097C15.6632 12.1742 16.2669 12.6809 16.6978 13.3295C17.1286 13.9782 17.3441 14.7216 17.3441 15.5597C17.3441 16.1089 17.2352 16.651 17.0174 17.1861C16.8043 17.7211 16.4232 18.3153 15.8739 18.9688C15.3247 19.6174 14.5505 20.3963 13.5515 21.3054L11.4279 23.3864V23.4858H17.5358V26H7.16653ZM25.2057 26H20.0494V11.4545H25.2483C26.7113 11.4545 27.9708 11.7457 29.0267 12.3281C30.0826 12.9058 30.8946 13.7367 31.4628 14.821C32.0357 15.9053 32.3221 17.2027 32.3221 18.7131C32.3221 20.2282 32.0357 21.5303 31.4628 22.6193C30.8946 23.7083 30.0778 24.544 29.0125 25.1264C27.9519 25.7088 26.6829 26 25.2057 26ZM23.1247 23.3651H25.0778C25.9869 23.3651 26.7516 23.2041 27.3719 22.8821C27.9969 22.5554 28.4656 22.0511 28.7781 21.3693C29.0953 20.6828 29.254 19.7973 29.254 18.7131C29.254 17.6383 29.0953 16.7599 28.7781 16.0781C28.4656 15.3963 27.9992 14.8944 27.379 14.5724C26.7587 14.2505 25.994 14.0895 25.0849 14.0895H23.1247V23.3651Z" fill="black"/>
</svg>
