<svg width="40" height="39" viewBox="0 0 40 39" fill="none" xmlns="http://www.w3.org/2000/svg">
<path d="M25.6034 6.24328L27.7644 4.08224C32.7852 6.45451 36.441 11.1828 37.3347 16.8535C37.4322 17.5196 38.0496 17.9746 38.7321 17.8609C39.3982 17.7634 39.8532 17.1297 39.7395 16.4635C38.7646 10.2729 34.9299 5.07339 29.6005 2.24618C26.887 0.800071 23.3773 -0.207328 19.4127 0.036398L25.6034 6.24328ZM15.3669 32.7444L13.2059 34.9054C8.18512 32.5331 4.52924 27.8049 3.63557 22.1342C3.53808 21.468 2.92065 21.013 2.23821 21.1268C1.57203 21.2243 1.11708 21.858 1.23082 22.5241C2.20572 28.7148 6.04033 33.9143 11.3698 36.7415C14.0833 38.1876 17.5929 39.195 21.5575 38.9512L15.3669 32.7444Z" fill="black"/>
<path d="M12.5427 26.1989C11.4821 26.1989 10.5375 26.0166 9.7089 25.652C8.88503 25.2827 8.23399 24.776 7.75577 24.1321C7.28229 23.4834 7.03844 22.7353 7.02424 21.8878H10.1208C10.1398 22.2429 10.2558 22.5554 10.4688 22.8253C10.6866 23.0904 10.9755 23.2964 11.3353 23.4432C11.6952 23.59 12.1 23.6634 12.5498 23.6634C13.0186 23.6634 13.4329 23.5805 13.7927 23.4148C14.1526 23.2491 14.4343 23.0194 14.6379 22.7259C14.8415 22.4323 14.9433 22.0937 14.9433 21.7102C14.9433 21.322 14.8344 20.9787 14.6166 20.6804C14.4035 20.3774 14.0957 20.1406 13.6933 19.9702C13.2955 19.7997 12.8221 19.7145 12.2728 19.7145H10.9163V17.456H12.2728C12.7368 17.456 13.1464 17.3755 13.5015 17.2145C13.8614 17.0535 14.1407 16.831 14.3396 16.5469C14.5384 16.258 14.6379 15.9219 14.6379 15.5384C14.6379 15.1738 14.5503 14.8542 14.3751 14.5795C14.2046 14.3002 13.9632 14.0824 13.6507 13.9261C13.3429 13.7699 12.983 13.6918 12.5711 13.6918C12.1544 13.6918 11.7733 13.7675 11.4276 13.919C11.082 14.0658 10.805 14.2765 10.5967 14.5511C10.3883 14.8258 10.2771 15.1477 10.2629 15.517H7.31543C7.32963 14.679 7.56874 13.9403 8.03276 13.3011C8.49677 12.6619 9.12177 12.1624 9.90776 11.8026C10.6985 11.438 11.591 11.2557 12.5853 11.2557C13.5891 11.2557 14.4674 11.438 15.2203 11.8026C15.9731 12.1671 16.5579 12.6596 16.9745 13.2798C17.3959 13.8954 17.6043 14.5866 17.5995 15.3537C17.6043 16.1681 17.3509 16.8475 16.8396 17.392C16.3329 17.9366 15.6724 18.2822 14.858 18.429V18.5426C15.9281 18.6799 16.7425 19.0516 17.3012 19.6577C17.8647 20.259 18.144 21.0118 18.1393 21.9162C18.144 22.7448 17.9049 23.4811 17.422 24.125C16.9437 24.7689 16.2832 25.2756 15.4404 25.6449C14.5976 26.0142 13.6317 26.1989 12.5427 26.1989ZM25.7914 26H20.6351V11.4545H25.834C27.297 11.4545 28.5565 11.7457 29.6124 12.3281C30.6682 12.9058 31.4803 13.7367 32.0485 14.821C32.6214 15.9053 32.9078 17.2027 32.9078 18.7131C32.9078 20.2282 32.6214 21.5303 32.0485 22.6193C31.4803 23.7083 30.6635 24.544 29.5982 25.1264C28.5376 25.7088 27.2686 26 25.7914 26ZM23.7104 23.3651H25.6635C26.5726 23.3651 27.3373 23.2041 27.9575 22.8821C28.5825 22.5554 29.0513 22.0511 29.3638 21.3693C29.681 20.6828 29.8396 19.7973 29.8396 18.7131C29.8396 17.6383 29.681 16.7599 29.3638 16.0781C29.0513 15.3963 28.5849 14.8944 27.9646 14.5724C27.3444 14.2505 26.5797 14.0895 25.6706 14.0895H23.7104V23.3651Z" fill="black"/>
</svg>
