<svg width="59" height="55" viewBox="0 0 59 55" fill="none" xmlns="http://www.w3.org/2000/svg">
<path d="M10.4409 47.3182C9.00903 47.3182 7.72873 47.0606 6.59994 46.5455C5.47116 46.0227 4.57722 45.2992 3.91813 44.375C3.25903 43.4508 2.91055 42.3864 2.87267 41.1818H5.0204C5.05828 42.0303 5.31964 42.7727 5.80449 43.4091C6.28934 44.0379 6.93328 44.5303 7.73631 44.8864C8.53934 45.2348 9.43328 45.4091 10.4181 45.4091C11.4939 45.4091 12.4409 45.2083 13.259 44.8068C14.0848 44.4053 14.7287 43.8561 15.1909 43.1591C15.6605 42.4545 15.8954 41.6591 15.8954 40.7727C15.8954 39.8333 15.6568 39.0038 15.1795 38.2841C14.7022 37.5644 14.0166 37.0038 13.1227 36.6023C12.2363 36.2008 11.1757 36 9.94085 36H8.57722V34.0909H9.94085C10.9484 34.0909 11.8386 33.9091 12.6113 33.5455C13.3916 33.1742 14.0052 32.6553 14.4522 31.9886C14.8992 31.322 15.1227 30.5379 15.1227 29.6364C15.1227 28.7803 14.9295 28.0265 14.5431 27.375C14.1568 26.7235 13.6113 26.2121 12.9068 25.8409C12.2098 25.4697 11.3954 25.2841 10.4636 25.2841C9.56206 25.2841 8.73631 25.4583 7.98631 25.8068C7.23631 26.1553 6.63025 26.6477 6.16813 27.2841C5.71358 27.9205 5.47116 28.6742 5.44085 29.5455H3.38403C3.41434 28.3333 3.74767 27.2689 4.38403 26.3523C5.02797 25.428 5.88025 24.7083 6.94085 24.1932C8.00903 23.6705 9.19085 23.4091 10.4863 23.4091C11.8575 23.4091 13.0431 23.6894 14.0431 24.25C15.0431 24.8106 15.8159 25.5568 16.3613 26.4886C16.9143 27.4129 17.1909 28.4318 17.1909 29.5455C17.1909 30.8712 16.831 32.0076 16.1113 32.9545C15.3916 33.8939 14.4219 34.5455 13.2022 34.9091V35.0568C14.6871 35.3523 15.8537 36.0114 16.7022 37.0341C17.5583 38.0492 17.9863 39.2955 17.9863 40.7727C17.9863 42.0152 17.6605 43.1326 17.009 44.125C16.3575 45.1098 15.4636 45.8902 14.3272 46.4659C13.1984 47.0341 11.903 47.3182 10.4409 47.3182ZM30.6472 47H23.829V23.7273H31.0563C33.276 23.7273 35.1737 24.1894 36.7495 25.1136C38.3328 26.0379 39.5449 27.3636 40.3859 29.0909C41.2268 30.8182 41.6472 32.8902 41.6472 35.3068C41.6472 37.7462 41.2154 39.8409 40.3518 41.5909C39.4957 43.3333 38.2457 44.6705 36.6018 45.6023C34.9654 46.5341 32.9805 47 30.6472 47ZM25.954 45.0909H30.5222C32.5222 45.0909 34.1965 44.697 35.5449 43.9091C36.8934 43.1212 37.9048 41.9962 38.579 40.5341C39.2533 39.072 39.5904 37.3295 39.5904 35.3068C39.5828 33.2992 39.2495 31.572 38.5904 30.125C37.9389 28.678 36.9692 27.5682 35.6813 26.7955C34.401 26.0227 32.8177 25.6364 30.9313 25.6364H25.954V45.0909Z" fill="black"/>
<path d="M33.7381 15V14.027L38.4895 8.68608C39.1098 7.98532 39.6093 7.38636 39.9881 6.8892C40.3669 6.39205 40.6415 5.93276 40.8119 5.51136C40.9871 5.08996 41.0747 4.65199 41.0747 4.19744C41.0747 3.64347 40.9445 3.16051 40.6841 2.74858C40.4284 2.33191 40.0757 2.00758 39.6259 1.77557C39.176 1.54356 38.6694 1.42756 38.106 1.42756C37.5094 1.42756 36.9862 1.5554 36.5364 1.81108C36.0913 2.06676 35.7456 2.41714 35.4994 2.86222C35.2532 3.30729 35.1301 3.81865 35.1301 4.39631H33.8588C33.8588 3.59138 34.0435 2.87879 34.4128 2.25852C34.7868 1.63352 35.2958 1.14347 35.9398 0.788351C36.5884 0.433238 37.3223 0.255681 38.1415 0.255681C38.9511 0.255681 39.6708 0.430871 40.3006 0.78125C40.9303 1.12689 41.4251 1.59801 41.7849 2.1946C42.1448 2.79119 42.3247 3.45881 42.3247 4.19744C42.3247 4.73248 42.23 5.25095 42.0406 5.75284C41.856 6.25473 41.5364 6.81345 41.0818 7.42898C40.6273 8.04451 39.9975 8.79735 39.1926 9.6875L35.5847 13.7145V13.8068H42.7793V15H33.7381ZM50.719 15H46.4576V0.454545H50.9746C52.362 0.454545 53.548 0.743371 54.5329 1.32102C55.5225 1.89867 56.28 2.72727 56.8056 3.80682C57.3312 4.88636 57.594 6.18134 57.594 7.69176C57.594 9.21638 57.3241 10.5256 56.7843 11.6193C56.2493 12.7083 55.468 13.544 54.4406 14.1264C53.4178 14.7088 52.1773 15 50.719 15ZM47.7857 13.8068H50.6408C51.8908 13.8068 52.9372 13.5606 53.78 13.0682C54.6228 12.5758 55.2549 11.8726 55.6763 10.9588C56.0978 10.045 56.3085 8.95597 56.3085 7.69176C56.3037 6.43703 56.0954 5.35748 55.6835 4.45312C55.2763 3.54877 54.6702 2.85511 53.8653 2.37216C53.0651 1.8892 52.0755 1.64773 50.8965 1.64773H47.7857V13.8068Z" fill="black"/>
</svg>
