<svg width="59" height="55" viewBox="0 0 59 55" fill="none" xmlns="http://www.w3.org/2000/svg">
<path d="M3.18091 47V45.4432L10.7832 36.8977C11.7756 35.7765 12.5748 34.8182 13.1809 34.0227C13.787 33.2273 14.2264 32.4924 14.4991 31.8182C14.7794 31.1439 14.9195 30.4432 14.9195 29.7159C14.9195 28.8295 14.7112 28.0568 14.2945 27.3977C13.8855 26.7311 13.3211 26.2121 12.6014 25.8409C11.8817 25.4697 11.0711 25.2841 10.1695 25.2841C9.215 25.2841 8.37788 25.4886 7.65818 25.8977C6.94606 26.3068 6.39303 26.8674 5.99909 27.5795C5.60515 28.2917 5.40818 29.1098 5.40818 30.0341H3.37409C3.37409 28.7462 3.66955 27.6061 4.26045 26.6136C4.85894 25.6136 5.67333 24.8295 6.70364 24.2614C7.74152 23.6932 8.91576 23.4091 10.2264 23.4091C11.5218 23.4091 12.6733 23.6894 13.6809 24.25C14.6885 24.803 15.4802 25.5568 16.0559 26.5114C16.6317 27.4659 16.9195 28.5341 16.9195 29.7159C16.9195 30.572 16.768 31.4015 16.465 32.2045C16.1695 33.0076 15.6582 33.9015 14.9309 34.8864C14.2036 35.8712 13.1961 37.0758 11.9082 38.5L6.13545 44.9432V45.0909H17.6468V47H3.18091ZM30.3503 47H23.5322V23.7273H30.7594C32.9791 23.7273 34.8769 24.1894 36.4526 25.1136C38.0359 26.0379 39.2481 27.3636 40.089 29.0909C40.9299 30.8182 41.3503 32.8902 41.3503 35.3068C41.3503 37.7462 40.9185 39.8409 40.0549 41.5909C39.1988 43.3333 37.9488 44.6705 36.3049 45.6023C34.6685 46.5341 32.6837 47 30.3503 47ZM25.6572 45.0909H30.2253C32.2253 45.0909 33.8996 44.697 35.2481 43.9091C36.5966 43.1212 37.6079 41.9962 38.2822 40.5341C38.9564 39.072 39.2935 37.3295 39.2935 35.3068C39.2859 33.2992 38.9526 31.572 38.2935 30.125C37.642 28.678 36.6723 27.5682 35.3844 26.7955C34.1041 26.0227 32.5208 25.6364 30.6344 25.6364H25.6572V45.0909Z" fill="black"/>
<path d="M37.7755 15.1989C36.8806 15.1989 36.0805 15.0379 35.375 14.7159C34.6695 14.3892 34.1108 13.937 33.6988 13.3594C33.2869 12.7817 33.0691 12.1165 33.0454 11.3636H34.3877C34.4114 11.8939 34.5748 12.358 34.8778 12.7557C35.1808 13.1487 35.5833 13.4564 36.0852 13.679C36.5871 13.8968 37.1458 14.0057 37.7613 14.0057C38.4337 14.0057 39.0255 13.8802 39.5369 13.6293C40.053 13.3783 40.4555 13.035 40.7443 12.5994C41.0378 12.1591 41.1846 11.6619 41.1846 11.108C41.1846 10.5208 41.0355 10.0024 40.7372 9.55256C40.4389 9.10275 40.0104 8.75237 39.4517 8.50142C38.8977 8.25047 38.2348 8.125 37.463 8.125H36.6108V6.93182H37.463C38.0928 6.93182 38.6491 6.81818 39.1321 6.59091C39.6198 6.3589 40.0033 6.03456 40.2826 5.6179C40.562 5.20123 40.7017 4.71117 40.7017 4.14773C40.7017 3.61269 40.5809 3.14157 40.3395 2.73438C40.098 2.32718 39.7571 2.00758 39.3167 1.77557C38.8811 1.54356 38.3721 1.42756 37.7897 1.42756C37.2263 1.42756 36.7102 1.53646 36.2414 1.75426C35.7727 1.97206 35.3939 2.27983 35.1051 2.67756C34.821 3.07528 34.6695 3.5464 34.6505 4.09091H33.365C33.384 3.33333 33.5923 2.66809 33.99 2.09517C34.3925 1.51752 34.9252 1.06771 35.588 0.745739C36.2556 0.419034 36.9943 0.255681 37.8039 0.255681C38.6609 0.255681 39.402 0.430871 40.027 0.78125C40.652 1.13163 41.1349 1.59801 41.4758 2.1804C41.8215 2.75805 41.9943 3.39489 41.9943 4.09091C41.9943 4.91951 41.7694 5.62973 41.3196 6.22159C40.8698 6.80871 40.2637 7.21591 39.5014 7.44318V7.53551C40.4294 7.72017 41.1586 8.1321 41.6889 8.77131C42.2239 9.40578 42.4914 10.1847 42.4914 11.108C42.4914 11.8845 42.2878 12.5829 41.8806 13.2031C41.4734 13.8187 40.9147 14.3063 40.2045 14.6662C39.499 15.0213 38.6894 15.1989 37.7755 15.1989ZM50.4045 15H46.1431V0.454545H50.6602C52.0475 0.454545 53.2336 0.743371 54.2184 1.32102C55.208 1.89867 55.9656 2.72727 56.4912 3.80682C57.0167 4.88636 57.2795 6.18134 57.2795 7.69176C57.2795 9.21638 57.0096 10.5256 56.4699 11.6193C55.9348 12.7083 55.1536 13.544 54.1261 14.1264C53.1034 14.7088 51.8628 15 50.4045 15ZM47.4713 13.8068H50.3264C51.5764 13.8068 52.6228 13.5606 53.4656 13.0682C54.3084 12.5758 54.9405 11.8726 55.3619 10.9588C55.7833 10.045 55.994 8.95597 55.994 7.69176C55.9893 6.43703 55.7809 5.35748 55.369 4.45312C54.9618 3.54877 54.3557 2.85511 53.5508 2.37216C52.7506 1.8892 51.761 1.64773 50.5821 1.64773H47.4713V13.8068Z" fill="black"/>
</svg>
